<svg width="93" height="13" viewBox="0 0 93 13" fill="none" xmlns="http://www.w3.org/2000/svg">
<path d="M0.409091 12V0.363621H1.81818V10.75H7.22727V12H0.409091ZM9.40909 12V0.363621H16.4318V1.61362H10.8182V5.54544H16.0682V6.79544H10.8182V10.75H16.5227V12H9.40909ZM28.7898 6.1818C28.7898 7.40908 28.5682 8.46968 28.125 9.36362C27.6818 10.2576 27.0739 10.947 26.3011 11.4318C25.5284 11.9167 24.6458 12.1591 23.6534 12.1591C22.661 12.1591 21.7784 11.9167 21.0057 11.4318C20.233 10.947 19.625 10.2576 19.1818 9.36362C18.7386 8.46968 18.517 7.40908 18.517 6.1818C18.517 4.95453 18.7386 3.89392 19.1818 2.99998C19.625 2.10605 20.233 1.41665 21.0057 0.931803C21.7784 0.446954 22.661 0.20453 23.6534 0.20453C24.6458 0.20453 25.5284 0.446954 26.3011 0.931803C27.0739 1.41665 27.6818 2.10605 28.125 2.99998C28.5682 3.89392 28.7898 4.95453 28.7898 6.1818ZM27.4261 6.1818C27.4261 5.17423 27.2576 4.32385 26.9205 3.63067C26.5871 2.93748 26.1345 2.41286 25.5625 2.0568C24.9943 1.70074 24.358 1.52271 23.6534 1.52271C22.9489 1.52271 22.3106 1.70074 21.7386 2.0568C21.1705 2.41286 20.7178 2.93748 20.3807 3.63067C20.0473 4.32385 19.8807 5.17423 19.8807 6.1818C19.8807 7.18938 20.0473 8.03976 20.3807 8.73294C20.7178 9.42612 21.1705 9.95074 21.7386 10.3068C22.3106 10.6629 22.9489 10.8409 23.6534 10.8409C24.358 10.8409 24.9943 10.6629 25.5625 10.3068C26.1345 9.95074 26.5871 9.42612 26.9205 8.73294C27.2576 8.03976 27.4261 7.18938 27.4261 6.1818ZM34.75 12H31.1591V0.363621H34.9091C36.0379 0.363621 37.0038 0.596575 37.8068 1.06248C38.6098 1.52461 39.2254 2.18938 39.6534 3.0568C40.0814 3.92044 40.2955 4.95453 40.2955 6.15908C40.2955 7.3712 40.0795 8.41476 39.6477 9.28976C39.2159 10.161 38.5871 10.8314 37.7614 11.3011C36.9356 11.767 35.9318 12 34.75 12ZM32.5682 10.75H34.6591C35.6212 10.75 36.4186 10.5644 37.0511 10.1932C37.6837 9.82195 38.1553 9.29355 38.4659 8.60794C38.7765 7.92233 38.9318 7.10605 38.9318 6.15908C38.9318 5.21968 38.7784 4.41097 38.4716 3.73294C38.1648 3.05112 37.7064 2.52839 37.0966 2.16476C36.4867 1.79733 35.7273 1.61362 34.8182 1.61362H32.5682V10.75ZM42.6591 12V0.363621H49.6818V1.61362H44.0682V5.54544H49.3182V6.79544H44.0682V10.75H49.7727V12H42.6591ZM52.6989 0.363621L56.1534 10.1591H56.2898L59.7443 0.363621H61.2216L56.9489 12H55.4943L51.2216 0.363621H52.6989Z" fill="#959595"/>
<path d="M62.6364 12V0.363621H67.2273C68.1098 0.363621 68.8617 0.532181 69.483 0.869303C70.1042 1.20264 70.5777 1.66665 70.9034 2.26135C71.233 2.85226 71.3977 3.53408 71.3977 4.3068C71.3977 5.07953 71.2311 5.76135 70.8977 6.35226C70.5644 6.94317 70.0814 7.40339 69.4489 7.73294C68.8201 8.06248 68.0587 8.22726 67.1648 8.22726H64.2386V6.25567H66.767C67.2405 6.25567 67.6307 6.17423 67.9375 6.01135C68.2481 5.84468 68.4792 5.61551 68.6307 5.32385C68.786 5.02839 68.8636 4.68938 68.8636 4.3068C68.8636 3.92044 68.786 3.58332 68.6307 3.29544C68.4792 3.00377 68.2481 2.77839 67.9375 2.6193C67.6269 2.45642 67.233 2.37498 66.7557 2.37498H65.0966V12H62.6364ZM73.6577 12H71.0213L75.0384 0.363621H78.2088L82.2202 12H79.5838L76.669 3.02271H76.5781L73.6577 12ZM73.4929 7.42612H79.7202V9.34658H73.4929V7.42612ZM81.7514 0.363621H84.5071L87.1605 5.37498H87.2741L89.9276 0.363621H92.6832L88.4389 7.88635V12H85.9957V7.88635L81.7514 0.363621Z" fill="white"/>
</svg>
